@startuml

class House {
  + getRooms : List<Room>
}

class GetRoomListController {
    - house : House
    - mapperToRoomDTO : MapperToRoomDTO
    + GetRoomListController(...)
    + getRoomList() : List<RoomDTO>
}

class MapperToRoomDTO {
    + MapperToRoomDTO(...)
    + getRoomList(...) : List<RoomDTO>
    - roomToDTO(...) : RoomDTO
}

class RoomDTO {
- name : String
- floor : int
- width : double
- length : double
- height : double

+ RoomDTO(...)
+ getName() : String
+ getFloor() : int
+ getWidth() : double
+ getLength() : double
+ getHeight() : double
}

class Room {
- name : String
- floor : int
+ getName() : String
+ getFloor() : int
+ getDimensions() : Dimensions
}

class Dimensions {
- width : double
- length : double
- height : double

+ getWidth() : double
+ getLength() : double
+ getHeight() : double
}

GetRoomListController "1" ..> "1" House : uses
GetRoomListController "1" ..> "1" MapperToRoomDTO : uses
MapperToRoomDTO "1" ..> "List<RoomDTO>" RoomDTO : creates
House "1" *-- "List<Room>" Room : contains
Room "1" *-- "1" Dimensions : has

@enduml